<?xml version="1.0" encoding="UTF-8"?><svg id="_레이어_1" xmlns="http://www.w3.org/2000/svg" viewBox="0 0 20 20"><defs><style>.cls-1{fill:#b3b3b3;stroke-width:0px;}</style></defs><path class="cls-1" d="M14.25,6.49c-2.19-1.14-4.98-.94-6.5.45l-.49.43V.23H2.54l.04,9.5.06,9.48,2.32.06c2.19.06,2.3.04,2.3-.39,0-.54.06-.54,1.05.11,1.5,1.01,3.69,1.03,5.73.06h0c1.22-.56,2.4-1.76,2.96-2.94.6-1.35.62-4.55.04-6.22-.43-1.26-1.74-2.85-2.79-3.41h0ZM12.3,14.17c-.6,1.18-2.64,1.69-3.71.94-1.59-1.09-1.42-3.67.3-4.48,2.36-1.12,4.61,1.22,3.41,3.54Z"/></svg>