<?xml version="1.0" encoding="UTF-8"?><svg id="_레이어_1" xmlns="http://www.w3.org/2000/svg" viewBox="0 0 20 20"><defs><style>.cls-1{isolation:isolate;}.cls-2{fill:#292929;stroke-width:0px;}</style></defs><g class="cls-1"><path class="cls-2" d="M6.9,6.62c.68-.78,1.62-1.25,2.65-1.32.09,0,.18,0,.27,0h0c2.02,0,3.72,1.58,3.86,3.6.04.54-.04,1.07-.22,1.57h3.59c.34,0,.63-.28.63-.63V2.88c0-.34-.28-.63-.63-.63H2.94c-.34,0-.63.28-.63.63v6.96c0,.34.28.63.63.63h3.23c-.12-.33-.19-.67-.22-1.03-.07-1.03.26-2.03.94-2.81Z"/><path class="cls-2" d="M19.96,17.16l-2.06-5.48c-.12-.32-.5-.59-.85-.59h-3.88c-.05.09-.11.18-.17.27l.18.21c.38,0,.73.17.98.45l1.27,1.46c.23.27.35.61.33.96-.02.35-.18.68-.45.91-.22.19-.49.3-.77.32-.03,0-.07,0-.1,0-.38,0-.75-.17-1-.45l-1.28-1.46c-.23-.27-.35-.61-.33-.96,0,0,0,0,0-.01l-.2-.22c-.48.26-1.01.42-1.56.45-.09,0-.18,0-.27,0-1.42,0-2.68-.78-3.35-1.95h-3.53c-.34,0-.72.26-.85.59L.04,17.16c-.12.32.06.59.41.59h19.11c.34,0,.53-.26.41-.59Z"/><path class="cls-2" d="M15.01,13.87l-1.27-1.46c-.14-.16-.34-.25-.55-.25-.08,0-.15.01-.22.04l-.72-.82c.59-.64.93-1.51.86-2.45-.12-1.73-1.56-3.05-3.27-3.05-.08,0-.15,0-.23,0-1.81.13-3.17,1.69-3.04,3.5.12,1.73,1.56,3.05,3.27,3.05.08,0,.15,0,.23,0,.64-.04,1.23-.28,1.71-.63l.73.82c-.03.07-.05.14-.05.22-.01.2.05.39.18.53l1.28,1.46c.14.16.34.25.55.25.02,0,.03,0,.05,0,.16-.01.31-.07.43-.18.15-.13.24-.31.25-.5s-.05-.38-.18-.53ZM9.99,11.56c-.06,0-.11,0-.17,0-1.25,0-2.3-.98-2.39-2.23-.04-.64.16-1.26.58-1.74s1-.77,1.64-.82c.06,0,.11,0,.17,0,1.25,0,2.3.98,2.39,2.23.04.64-.16,1.26-.58,1.74-.42.48-1,.77-1.64.82Z"/><path class="cls-2" d="M11.23,9.01h-.22l.22-.82s0-.03,0-.04c0,0-.02-.02-.03-.02h-.28s-.04.01-.04.03l-.21.84h-.42l-.21-.84s-.02-.03-.04-.03h-.33s-.04.01-.04.03l-.21.84h-.42l-.21-.84s-.02-.03-.04-.03h-.28s-.03,0-.03.02c0,.01-.01.02,0,.04l.21.82h-.22s-.04.02-.04.04v.25s.02.04.04.04h.31l.29,1.09s.02.03.04.03h.3s.04-.01.04-.03l.28-1.09h.32l.28,1.09s.02.03.04.03h.3s.03-.01.04-.03l.29-1.09h.31s.04-.02.04-.04v-.25s-.02-.04-.04-.04ZM10.57,9.34l-.13.49-.13-.49h.25ZM9.89,9.01h-.14l.07-.28.07.28ZM9.32,9.34l-.13.49-.13-.49h.25Z"/></g></svg>