<?xml version="1.0" encoding="UTF-8"?><svg id="_레이어_1" xmlns="http://www.w3.org/2000/svg" viewBox="0 0 20 20"><defs><style>.cls-1{fill:#292929;isolation:isolate;stroke-width:0px;}</style></defs><path class="cls-1" d="M14.88,12.42c-.19-.18-.45-.29-.74-.29s-.55.11-.75.3l-.73.73c-.46.46-1.2.46-1.66,0l-2.08-2.08-2.08-2.08c-.46-.46-.46-1.2,0-1.66l.73-.73c.19-.19.3-.46.3-.75s-.11-.54-.29-.74L3.81.56c-.2-.24-.5-.39-.83-.39-.35,0-.66.17-.86.43l-.06.09C1.25,1.8.17,3.56.17,5.21c0,2.26,1.71,5.1,4.78,8.19l.8.8s0,0,.01.01v.02c3.11,3.08,6.75,5.59,9.01,5.59,1.65,0,3.41-1.07,4.52-1.89l.09-.06c.26-.2.43-.51.43-.86,0-.33-.15-.63-.39-.83l-4.55-3.77Z"/></svg>