<?xml version="1.0" encoding="UTF-8"?><svg id="_레이어_1" xmlns="http://www.w3.org/2000/svg" viewBox="0 0 20 20"><defs><style>.cls-1{fill:#222;}.cls-1,.cls-2{stroke-width:0px;}.cls-2{fill:#fff;}.cls-3{fill:none;stroke:#222;stroke-miterlimit:10;stroke-width:1.5px;}</style></defs><line class="cls-3" x1="4.89" y1=".23" x2="4.89" y2="3.33"/><line class="cls-3" x1="15.11" y1=".23" x2="15.11" y2="3.33"/><path class="cls-1" d="M18.91,6.26v-2.68c0-.9-.73-1.63-1.63-1.63H2.72c-.9,0-1.63.73-1.63,1.63v2.68h17.82Z"/><path class="cls-1" d="M1.09,7.43v10.71c0,.9.73,1.63,1.63,1.63h14.56c.9,0,1.63-.73,1.63-1.63V7.43H1.09Z"/><rect class="cls-2" x="3.64" y="9.44" width="2.49" height="2.49"/><rect class="cls-2" x="8.75" y="9.44" width="2.49" height="2.49"/><rect class="cls-2" x="13.99" y="9.44" width="2.49" height="2.49"/><rect class="cls-2" x="3.64" y="14.11" width="2.49" height="2.49"/><rect class="cls-2" x="8.75" y="14.11" width="2.49" height="2.49"/><rect class="cls-2" x="13.99" y="14.11" width="2.49" height="2.49"/></svg>