<?xml version="1.0" encoding="UTF-8"?><svg id="_레이어_1" xmlns="http://www.w3.org/2000/svg" viewBox="0 0 25 25"><defs><style>.cls-1{fill:#123896;stroke-width:0px;}</style></defs><path class="cls-1" d="M8.74,8.4c.82-.95,1.97-1.52,3.22-1.6.11,0,.22-.01.33-.01h0c2.45,0,4.51,1.92,4.68,4.37.05.66-.05,1.3-.26,1.91h4.35c.42,0,.76-.34.76-.76V3.87c0-.42-.34-.76-.76-.76H3.94c-.42,0-.76.34-.76.76v8.44c0,.42.34.76.76.76h3.92c-.14-.4-.24-.82-.27-1.25-.09-1.25.32-2.46,1.14-3.41Z"/><path class="cls-1" d="M24.59,21.18l-2.5-6.64c-.15-.39-.61-.71-1.03-.71h-4.7c-.07.11-.13.22-.21.33l.22.25c.46,0,.89.2,1.19.55l1.55,1.77c.28.32.42.74.4,1.17-.03.43-.22.82-.55,1.1-.27.23-.59.37-.94.39-.04,0-.08,0-.12,0-.47,0-.91-.2-1.21-.55l-1.55-1.77c-.28-.32-.42-.74-.4-1.17,0,0,0-.01,0-.02l-.24-.27c-.58.31-1.22.5-1.9.55-.11,0-.22.01-.33.01-1.72,0-3.25-.95-4.06-2.36H3.94c-.42,0-.88.32-1.03.71L.41,21.18c-.15.39.07.71.49.71h23.19c.42,0,.64-.32.49-.71Z"/><path class="cls-1" d="M18.57,17.2l-1.55-1.77c-.17-.19-.41-.3-.67-.3-.09,0-.18.02-.27.04l-.88-.99c.72-.78,1.13-1.83,1.05-2.97-.15-2.1-1.89-3.7-3.97-3.7-.09,0-.19,0-.28,0-2.19.15-3.85,2.06-3.69,4.25.15,2.1,1.89,3.7,3.97,3.7.09,0,.19,0,.28,0,.78-.05,1.49-.33,2.08-.77l.89,1c-.03.08-.06.17-.06.27-.02.24.06.47.22.65l1.55,1.77c.17.19.41.3.67.3.02,0,.04,0,.06,0,.2-.01.38-.09.52-.22.18-.16.29-.37.3-.61s-.06-.47-.22-.65ZM12.49,14.39c-.07,0-.14,0-.21,0-1.52,0-2.79-1.19-2.9-2.71-.05-.78.2-1.53.71-2.11s1.22-.94,1.99-.99c.07,0,.14,0,.21,0,1.52,0,2.79,1.19,2.9,2.71.05.78-.2,1.53-.71,2.11-.51.59-1.22.94-1.99.99Z"/><path class="cls-1" d="M13.99,11.3h-.27l.26-.99s0-.03,0-.04c0-.01-.02-.02-.04-.02h-.34s-.04.02-.05.04l-.26,1.02h-.51l-.25-1.02s-.03-.04-.05-.04h-.4s-.04.02-.05.04l-.26,1.02h-.51l-.26-1.02s-.03-.04-.05-.04h-.34s-.03,0-.04.02c0,.01-.01.03,0,.04l.26.99h-.27s-.05.02-.05.05v.3s.02.05.05.05h.37l.35,1.32s.03.04.05.04h.36s.04-.02.05-.04l.34-1.32h.38l.34,1.32s.03.04.05.04h.36s.04-.01.05-.04l.35-1.32h.37s.05-.02.05-.05v-.3s-.02-.05-.05-.05ZM13.19,11.7l-.15.6-.15-.6h.31ZM12.37,11.3h-.17l.09-.34.08.34ZM11.67,11.7l-.15.6-.15-.6h.3Z"/></svg>