<?xml version="1.0" encoding="UTF-8"?><svg id="_레이어_1" xmlns="http://www.w3.org/2000/svg" viewBox="0 0 20 20"><defs><style>.cls-1{fill:#fff;stroke-width:0px;}</style></defs><path class="cls-1" d="M19.33,9.47c0-.86-.43-1.56-.98-1.65V3.63c0-1.14-.67-1.78-1.72-2.24-1.78-.79-4.59-1.12-6.63-1.12s-4.85.33-6.63,1.12c-1.04.46-1.72,1.1-1.72,2.24v4.19c-.55.08-.98.78-.98,1.65s.43,1.56.98,1.65v5.46c0,.61.49,1.1,1.1,1.1h.25v.4c0,.92.74,1.66,1.66,1.66s1.66-.74,1.66-1.66v-.4h7.36v.4c0,.92.74,1.66,1.66,1.66s1.66-.74,1.66-1.66v-.4h.25c.61,0,1.1-.49,1.1-1.1v-5.46c.55-.08.98-.78.98-1.65ZM7.46,1.43h5.08c.18,0,.33.15.33.33s-.15.33-.33.33h-5.08c-.18,0-.33-.15-.33-.33s.15-.33.33-.33ZM3.38,4.13c.85-1.39,2.94-1.5,6.33-1.5,3.07,0,5.45.13,6.33,1.5.86,1.35,0,6.41,0,6.41,0,.61-.61,1.1-1.37,1.1H4.75c-.76,0-1.37-.49-1.37-1.1,0,0-.84-5.04,0-6.41ZM7.03,15.07c0,.19-.15.35-.35.35h-3.32c-.19,0-.35-.15-.35-.35v-.91c0-.19.15-.35.35-.35h3.32c.19,0,.35.15.35.35v.91ZM12.97,15.07v-.91c0-.19.15-.35.35-.35h3.32c.19,0,.35.15.35.35v.91c0,.19-.15.35-.35.35h-3.32c-.19,0-.35-.15-.35-.35Z"/></svg>