<?xml version="1.0" encoding="UTF-8"?><svg id="_레이어_1" xmlns="http://www.w3.org/2000/svg" viewBox="0 0 80 80"><defs><style>.cls-1{fill:#323232;stroke-width:0px;}</style></defs><path class="cls-1" d="M79.17,45.72c0-1.73-1.41-3.14-3.14-3.14h-2.96V8.33c0-2.86-2.33-5.19-5.19-5.19h-3.1c-1.54,0-2.98.6-4.06,1.68l-1.41,1.41-.8-.8c-1.89-1.89-4.98-1.9-6.87,0l-1.49,1.49,9.72,9.72,1.49-1.49c1.89-1.89,1.89-4.98,0-6.87l-.92-.92,1.41-1.41c.77-.77,1.84-1.21,2.93-1.21h3.1c1.98,0,3.59,1.61,3.59,3.59v34.25h-24.36c-.05-3.57-2.96-6.45-6.54-6.45s-6.49,2.89-6.54,6.45h-.57c.07-.5.12-1.01.12-1.53,0-5.8-4.72-10.51-10.51-10.51-3.47,0-6.62,1.67-8.59,4.49-.78-.31-1.63-.48-2.51-.48-3.8,0-6.89,3.09-6.89,6.89,0,.39.03.77.1,1.14h-1.21c-1.73,0-3.14,1.41-3.14,3.14,0,1.61,1.22,2.92,2.78,3.1v13.34c0,5.1,3.95,9.3,8.95,9.71v.55c0,2.46,2,4.46,4.46,4.46s4.46-2,4.46-4.46v-.5h37.06v.5c0,2.46,2,4.46,4.46,4.46s4.46-2,4.46-4.46v-.55c5-.41,8.95-4.6,8.95-9.71v-13.34c1.56-.18,2.78-1.49,2.78-3.1ZM60.23,14.01l-.36.36-7.45-7.45.36-.36c1.27-1.27,3.34-1.27,4.61,0l2.85,2.85c1.27,1.27,1.27,3.34,0,4.61ZM40.57,37.73c2.69,0,4.89,2.17,4.94,4.85h-9.88c.05-2.68,2.25-4.85,4.94-4.85ZM23.07,32.14c4.91,0,8.91,4,8.91,8.91,0,.51-.06,1.02-.15,1.53h-13.07c.06-.38.1-.76.1-1.14,0-2.34-1.17-4.4-2.96-5.65,1.68-2.29,4.29-3.64,7.17-3.64ZM6.68,41.44c0-2.92,2.37-5.29,5.29-5.29s5.29,2.37,5.29,5.29c0,.39-.06.77-.14,1.14H6.81c-.08-.37-.14-.75-.14-1.14ZM19.87,72.41c0,1.57-1.28,2.86-2.86,2.86s-2.86-1.28-2.86-2.86v-.5h5.71v.5ZM65.84,72.41c0,1.57-1.28,2.86-2.86,2.86s-2.86-1.28-2.86-2.86v-.5h5.71v.5ZM66.64,70.3H13.36c-4.49,0-8.14-3.65-8.14-8.14v-13.3h69.58v13.3c0,4.49-3.65,8.14-8.14,8.14ZM76.23,47.23H3.77c-.75-.1-1.34-.73-1.34-1.51,0-.85.69-1.53,1.53-1.53h72.08c.85,0,1.53.69,1.53,1.53,0,.78-.59,1.42-1.34,1.51Z"/><rect class="cls-1" x="52.33" y="13.05" width="1.2" height="1.6" transform="translate(5.71 41.49) rotate(-45)"/><rect class="cls-1" x="40.54" y="24.21" width="2.46" height="1.6" transform="translate(-5.45 36.87) rotate(-45.01)"/><rect class="cls-1" x="46.34" y="18.41" width="2.46" height="1.6" transform="translate(.35 39.27) rotate(-45)"/><rect class="cls-1" x="49.25" y="15.51" width="2.46" height="1.6" transform="translate(3.25 40.47) rotate(-45)"/><rect class="cls-1" x="37.64" y="27.11" width="2.46" height="1.6" transform="translate(-8.35 35.66) rotate(-45)"/><rect class="cls-1" x="43.44" y="21.31" width="2.46" height="1.6" transform="translate(-2.55 38.07) rotate(-45)"/><rect class="cls-1" x="35.82" y="29.57" width="1.2" height="1.6" transform="translate(-10.81 34.65) rotate(-45)"/><rect class="cls-1" x="49.05" y="9.76" width="1.2" height="1.6" transform="translate(3.98 32.73) rotate(-37.9)"/><rect class="cls-1" x="32.99" y="21.78" width="2.42" height="1.6" transform="translate(-6.66 25.75) rotate(-37.88)"/><rect class="cls-1" x="42.55" y="14.34" width="2.42" height="1.6" transform="translate(-.08 30.06) rotate(-37.88)"/><rect class="cls-1" x="36.17" y="19.3" width="2.42" height="1.6" transform="translate(-4.47 27.19) rotate(-37.88)"/><rect class="cls-1" x="39.36" y="16.82" width="2.42" height="1.6" transform="translate(-2.27 28.63) rotate(-37.88)"/><rect class="cls-1" x="45.73" y="11.87" width="2.42" height="1.6" transform="translate(2.11 31.49) rotate(-37.88)"/><rect class="cls-1" x="30.89" y="23.88" width="1.2" height="1.6" transform="translate(-8.52 24.52) rotate(-37.86)"/><rect class="cls-1" x="55.62" y="16.34" width="1.2" height="1.6" transform="translate(8.18 51) rotate(-52.12)"/><rect class="cls-1" x="50.43" y="22.23" width="2.42" height="1.6" transform="translate(1.76 49.65) rotate(-52.12)"/><rect class="cls-1" x="43" y="31.79" width="2.42" height="1.6" transform="translate(-8.66 47.47) rotate(-52.12)"/><rect class="cls-1" x="52.91" y="19.04" width="2.42" height="1.6" transform="translate(5.23 50.38) rotate(-52.12)"/><rect class="cls-1" x="47.95" y="25.42" width="2.42" height="1.6" transform="translate(-1.72 48.93) rotate(-52.12)"/><rect class="cls-1" x="45.47" y="28.6" width="2.42" height="1.6" transform="translate(-5.19 48.2) rotate(-52.12)"/><rect class="cls-1" x="41.5" y="34.49" width="1.2" height="1.6" transform="translate(-11.61 46.84) rotate(-52.1)"/><path class="cls-1" d="M51.63,42.13c2.09,0,3.79-1.7,3.79-3.79s-1.7-3.79-3.79-3.79-3.79,1.7-3.79,3.79,1.7,3.79,3.79,3.79ZM51.63,36.15c1.21,0,2.19.98,2.19,2.19s-.98,2.19-2.19,2.19-2.19-.98-2.19-2.19.98-2.19,2.19-2.19Z"/></svg>