<?xml version="1.0" encoding="UTF-8"?><svg id="_레이어_1" xmlns="http://www.w3.org/2000/svg" viewBox="0 0 45 45"><defs><style>.cls-1{fill:#323232;stroke-width:0px;}</style></defs><path class="cls-1" d="M.5,44.5h34.23V.5H.5v44ZM2.33,2.33h30.57v40.34H2.33V2.33Z"/><path class="cls-1" d="M4.53,11.95h26.18v-7.33H4.53v7.33ZM6.36,6.45h22.51v3.67H6.36v-3.67Z"/><polygon class="cls-1" points="8.81 21.5 6.09 18.82 4.8 20.12 8.89 24.14 14.99 17.44 13.63 16.21 8.81 21.5"/><polygon class="cls-1" points="13.16 28.67 9.88 31.95 6.6 28.67 5.31 29.96 8.59 33.24 5.31 36.52 6.6 37.81 9.88 34.54 13.16 37.81 14.45 36.52 11.17 33.24 14.45 29.96 13.16 28.67"/><rect class="cls-1" x="18.04" y="17.33" width="11.75" height="1.83"/><rect class="cls-1" x="18.04" y="21.36" width="11.75" height="1.83"/><rect class="cls-1" x="18.04" y="30.31" width="11.75" height="1.83"/><rect class="cls-1" x="18.04" y="34.34" width="11.75" height="1.83"/><path class="cls-1" d="M40.54,4.97l-3.96,6.99v32.55h7.92V11.95l-3.96-6.99ZM42.67,42.67h-4.26V12.44l2.13-3.76,2.13,3.76v30.23Z"/></svg>