<?xml version="1.0" encoding="UTF-8"?><svg id="_레이어_1" xmlns="http://www.w3.org/2000/svg" viewBox="0 0 45 45"><defs><style>.cls-1{fill:#323232;stroke-width:0px;}</style></defs><path class="cls-1" d="M2.45,10.87h28.25v8.58h1.78V3.28h-5.06V.64h-1.78v2.64H7.52V.64h-1.78v2.64H.67v27.43h19.07v-1.78H2.45V10.87ZM5.74,5.05v2.01h1.78v-2.01h18.12v2.01h1.78v-2.01h3.29v4.04H2.45v-4.04h3.29Z"/><path class="cls-1" d="M11.96,13.19h-6.22v6.22h6.22v-6.22ZM10.18,17.64h-2.66v-2.66h2.66v2.66Z"/><path class="cls-1" d="M19.69,13.19h-6.22v6.22h6.22v-6.22ZM17.91,17.64h-2.66v-2.66h2.66v2.66Z"/><path class="cls-1" d="M27.41,19.41v-6.22h-6.22v6.22h6.22ZM22.97,14.97h2.66v2.66h-2.66v-2.66Z"/><path class="cls-1" d="M5.74,26.53h6.22v-6.22h-6.22v6.22ZM7.52,22.09h2.66v2.66h-2.66v-2.66Z"/><path class="cls-1" d="M13.47,26.53h6.22v-6.22h-6.22v6.22ZM15.24,22.09h2.66v2.66h-2.66v-2.66Z"/><path class="cls-1" d="M32.54,20.79c-6.5,0-11.79,5.29-11.79,11.79s5.29,11.79,11.79,11.79,11.79-5.29,11.79-11.79-5.29-11.79-11.79-11.79ZM32.54,42.58c-5.52,0-10.01-4.49-10.01-10.01s4.49-10.01,10.01-10.01,10.01,4.49,10.01,10.01-4.49,10.01-10.01,10.01Z"/><polygon class="cls-1" points="33.43 24.44 31.65 24.44 31.65 33.46 36.7 33.46 36.7 31.69 33.43 31.69 33.43 24.44"/></svg>