<?xml version="1.0" encoding="UTF-8"?><svg id="_레이어_1" xmlns="http://www.w3.org/2000/svg" viewBox="0 0 80 80"><defs><style>.cls-1{fill:#323232;stroke-width:0px;}</style></defs><path class="cls-1" d="M72.14,48.77c4.02,0,7.29-3.28,7.29-7.3,0-.62-.09-1.23-.24-1.81h0s-.01-.03-.01-.03c-.13-.51-.32-.99-.55-1.45l-9.96-26.37c-1.48-3.91-5.27-6.53-9.45-6.53H20.68c-4.44,0-8.31,2.84-9.64,7.08L.6,45.62l.17.05c-.13.75-.21,1.51-.21,2.29,0,5.25,2.96,9.83,7.29,12.16-4.02,0-7.29,3.28-7.29,7.3s3.28,7.3,7.3,7.3h57.78c7.6,0,13.79-6.19,13.79-13.79,0-5.25-2.96-9.83-7.29-12.16ZM12.6,12.84c1.11-3.55,4.36-5.94,8.08-5.94h38.54c3.5,0,6.69,2.2,7.93,5.48l8.6,22.75c-1.07-.61-2.3-.97-3.62-.97H14.35c-3.78,0-7.21,1.53-9.71,4.01l7.96-25.34ZM65.65,73.09H7.87c-3.13,0-5.67-2.55-5.67-5.67s2.54-5.67,5.67-5.67h6.49s51.29,0,51.29,0v-1.63H14.35c-6.7,0-12.16-5.45-12.16-12.16s5.45-12.16,12.16-12.16h57.78c2.16,0,4.05,1.22,5,3l.51,1.34c.1.43.16.87.16,1.33,0,3.13-2.54,5.67-5.67,5.67H13.87v1.63h51.78c6.7,0,12.16,5.46,12.16,12.16s-5.45,12.16-12.16,12.16Z"/></svg>