<?xml version="1.0" encoding="UTF-8"?><svg id="_레이어_1" xmlns="http://www.w3.org/2000/svg" viewBox="0 0 45 45"><defs><style>.cls-1{fill:#323232;stroke-width:0px;}</style></defs><path class="cls-1" d="M30.66,4.57H4.56v7.31h26.1v-7.31ZM28.84,10.06H6.39v-3.66h22.45v3.66Z"/><rect class="cls-1" x="5.47" y="16.64" width="3.47" height="1.83"/><rect class="cls-1" x="5.47" y="21.49" width="3.47" height="1.83"/><rect class="cls-1" x="5.47" y="26.35" width="3.47" height="1.83"/><rect class="cls-1" x="11.72" y="16.64" width="18.03" height="1.83"/><rect class="cls-1" x="11.72" y="21.49" width="8.3" height="1.83"/><rect class="cls-1" x="11.72" y="26.35" width="8.3" height="1.83"/><polygon class="cls-1" points="15.11 37.61 10.58 33.07 6.08 37.57 2.37 33.85 2.37 2.29 32.85 2.29 32.85 20.83 34.68 20.83 34.68 .47 .54 .47 .54 34.61 6.08 40.15 10.58 35.66 15.11 40.19 20.39 34.92 19.1 33.63 15.11 37.61"/><path class="cls-1" d="M33.04,21.7c-6.3,0-11.42,5.12-11.42,11.42s5.12,11.42,11.42,11.42,11.42-5.12,11.42-11.42-5.12-11.42-11.42-11.42ZM33.04,42.71c-5.29,0-9.59-4.3-9.59-9.59s4.3-9.59,9.59-9.59,9.59,4.3,9.59,9.59-4.3,9.59-9.59,9.59Z"/><path class="cls-1" d="M38.89,32.92l1.18-3.92-1.75-.53-1.34,4.45h-1.71l-1.34-4.45h-1.75l-1.34,4.45h-1.71l-1.34-4.45-1.75.53,1.18,3.92h-1.96v1.83h2.51l1.34,4.42h1.75l1.34-4.42h1.72l1.34,4.42h1.75l1.34-4.42h2.4v-1.83h-1.85ZM29.98,35.75l-.3-1h.61l-.3,1ZM32.74,32.92l.31-1.03.31,1.03h-.62ZM36.12,35.75l-.3-1h.61l-.3,1Z"/></svg>