<?xml version="1.0" encoding="UTF-8"?><svg id="_레이어_1" xmlns="http://www.w3.org/2000/svg" viewBox="0 0 80 80"><defs><style>.cls-1{fill:#323232;stroke-width:0px;}</style></defs><path class="cls-1" d="M79.43,58.23h-2.09v-18.68c0-2.1-1.71-3.81-3.81-3.81h-.32V6.47h-1.6v6.88h-16.56c-3.2-2.12-8.69-3.38-14.79-3.38s-11.59,1.26-14.78,3.38H8.91v-6.88h-1.6v29.27h-.84c-2.1,0-3.81,1.71-3.81,3.81v18.68H.57v7.79h2.09v7.5h7.84v-7.5h59v7.5h7.84v-7.5h2.09v-7.79ZM8.91,14.95h17.06l.21-.14c2.86-1.99,8.25-3.23,14.08-3.23s11.22,1.24,14.08,3.23l.21.14h17.06v20.79h-5.36c.18-.38.3-.79.3-1.24v-6.51c0-1.57-1.27-2.84-2.84-2.84h-21.4c-.87,0-1.65.41-2.17,1.03-.52-.62-1.3-1.03-2.17-1.03h-21.4c-1.57,0-2.84,1.27-2.84,2.84v6.51c0,.45.11.86.3,1.24h-5.1V14.95ZM15.32,34.51v-6.51c0-.68.56-1.24,1.24-1.24h21.4c.68,0,1.24.56,1.24,1.24v6.51c0,.68-.56,1.24-1.24,1.24h-21.4c-.68,0-1.24-.56-1.24-1.24ZM41.06,34.51v-6.51c0-.68.56-1.24,1.24-1.24h21.4c.68,0,1.24.56,1.24,1.24v6.51c0,.68-.56,1.24-1.24,1.24h-21.4c-.68,0-1.24-.56-1.24-1.24ZM4.26,39.55c0-1.22.99-2.2,2.2-2.2h67.06c1.22,0,2.21.99,2.21,2.2v18.68H4.26v-18.68ZM8.9,71.93h-4.63v-5.9h4.63v5.9ZM75.74,71.93h-4.63v-5.9h4.63v5.9ZM77.83,64.42H2.17v-4.58h75.66v4.58Z"/></svg>