<?xml version="1.0" encoding="UTF-8"?><svg id="_레이어_1" xmlns="http://www.w3.org/2000/svg" viewBox="0 0 80 80"><defs><style>.cls-1{fill:#323232;stroke-width:0px;}</style></defs><path class="cls-1" d="M59.63,17.64h-10.97l-5.52-5.56c.59-.71.96-1.61.96-2.61,0-2.26-1.84-4.1-4.1-4.1s-4.1,1.84-4.1,4.1c0,.99.37,1.9.96,2.61l-5.52,5.56h-10.97v16.37h39.27v-16.37ZM40,7.04c1.34,0,2.43,1.09,2.43,2.43s-1.09,2.43-2.43,2.43-2.43-1.09-2.43-2.43,1.09-2.43,2.43-2.43ZM38.17,13.13c.55.28,1.17.45,1.83.45s1.27-.17,1.83-.45l4.48,4.51h-12.61l4.48-4.51ZM57.96,32.34H22.04v-13.03h35.93v13.03Z"/><path class="cls-1" d="M67.46,77.64V.69H12.54v76.94H.96v1.67h78.09v-1.67h-11.58ZM14.21,77.64V2.36h51.59v75.27H14.21Z"/><path class="cls-1" d="M58.43,39.54h-15.66c-1.55,0-2.81,1.26-2.81,2.81s1.26,2.81,2.81,2.81h15.66c1.55,0,2.81-1.26,2.81-2.81s-1.26-2.81-2.81-2.81ZM58.43,43.49h-15.66c-.63,0-1.14-.51-1.14-1.14s.51-1.14,1.14-1.14h15.66c.63,0,1.14.51,1.14,1.14s-.51,1.14-1.14,1.14Z"/><path class="cls-1" d="M27.21,26.98h.91l1.44,2.19h1.6l-1.6-2.42c.34-.19.61-.4.79-.61.19-.21.32-.44.38-.67.07-.23.1-.49.1-.78,0-.44-.09-.83-.26-1.16-.18-.33-.42-.59-.73-.77s-.67-.27-1.08-.27h-2.9v6.68h1.34v-2.19ZM27.21,23.63h1.27c.21,0,.39.04.55.12s.27.21.35.37c.08.16.12.37.12.61s-.04.44-.12.61c-.08.16-.2.29-.35.37s-.34.12-.55.12h-1.27v-2.2Z"/><path class="cls-1" d="M33.18,28.8c.51.29,1.1.44,1.75.44s1.24-.15,1.75-.44c.51-.29.92-.7,1.2-1.21.29-.52.43-1.11.43-1.76s-.14-1.25-.43-1.76c-.29-.52-.69-.92-1.2-1.21-.51-.29-1.1-.44-1.75-.44s-1.24.15-1.75.44c-.51.29-.92.7-1.2,1.21-.29.52-.43,1.1-.43,1.76s.14,1.25.43,1.76c.29.52.69.92,1.2,1.21ZM33.13,24.63c.16-.34.4-.6.71-.78.31-.18.67-.27,1.09-.27s.78.09,1.09.27c.31.18.54.44.71.78s.25.74.25,1.19-.08.86-.25,1.19-.4.6-.71.78c-.31.18-.67.27-1.09.27s-.78-.09-1.09-.27c-.31-.18-.55-.44-.71-.78-.16-.34-.25-.74-.25-1.19s.08-.86.25-1.19Z"/><path class="cls-1" d="M40.7,28.8c.51.29,1.1.44,1.75.44s1.23-.15,1.75-.44c.51-.29.91-.7,1.2-1.21.29-.52.43-1.11.43-1.76s-.15-1.25-.43-1.76c-.29-.52-.69-.92-1.2-1.21-.52-.29-1.1-.44-1.75-.44s-1.24.15-1.75.44c-.51.29-.92.7-1.2,1.21-.29.52-.43,1.1-.43,1.76s.14,1.25.43,1.76c.29.52.69.92,1.2,1.21ZM40.66,24.63c.16-.34.4-.6.71-.78.31-.18.67-.27,1.09-.27s.78.09,1.09.27c.31.18.55.44.71.78.16.34.25.74.25,1.19s-.08.86-.25,1.19c-.16.34-.4.6-.71.78-.31.18-.67.27-1.09.27s-.78-.09-1.09-.27c-.31-.18-.55-.44-.71-.78-.16-.34-.25-.74-.25-1.19s.08-.86.25-1.19Z"/><polygon class="cls-1" points="48.17 24.72 49.95 27.61 51.01 27.61 52.79 24.72 52.79 29.17 54.13 29.17 54.13 22.48 52.61 22.48 50.48 25.89 48.34 22.48 46.83 22.48 46.83 29.17 48.17 29.17 48.17 24.72"/></svg>