<?xml version="1.0" encoding="UTF-8"?><svg id="_레이어_1" xmlns="http://www.w3.org/2000/svg" viewBox="0 0 25 25"><defs><style>.cls-1{fill:#123896;stroke-width:0px;}</style></defs><path class="cls-1" d="M18.55,15.49c-.24-.22-.55-.36-.91-.36s-.69.14-.92.38l-.9.91c-.57.57-1.49.57-2.06,0l-2.58-2.58-2.58-2.58c-.57-.57-.57-1.49,0-2.06l.9-.9c.24-.24.38-.57.38-.92s-.14-.67-.36-.91L4.84.82c-.24-.29-.61-.48-1.02-.48-.44,0-.82.21-1.06.53l-.08.11C1.66,2.35.34,4.53.34,6.57c0,2.8,2.11,6.32,5.92,10.14l.99,1s.01.01.02.02l.02.02c3.83,3.81,8.34,6.92,11.14,6.92,2.05,0,4.22-1.33,5.6-2.34l.11-.08c.32-.24.53-.63.53-1.06,0-.41-.19-.78-.48-1.02l-5.64-4.66Z"/></svg>